<svg xmlns="http://www.w3.org/2000/svg" viewBox="0 0 559.15 559.15"><defs><style>.cls-1{fill:#231f20;}</style></defs><title>Asset 15</title><g id="Layer_2" data-name="Layer 2"><g id="Layer_1-2" data-name="Layer 1"><path class="cls-1" d="M279.57,0C125.17,0,0,125.17,0,279.57S125.17,559.15,279.57,559.15,559.15,434,559.15,279.57,434,0,279.57,0ZM467.25,416.13a51.12,51.12,0,0,1-51.12,51.12H143A51.12,51.12,0,0,1,91.9,416.13V143A51.12,51.12,0,0,1,143,91.9H416.13A51.12,51.12,0,0,1,467.25,143Z"/><path class="cls-1" d="M368.73,192H190.42a21.32,21.32,0,0,0-21.32,21.31V391.58a21.33,21.33,0,0,0,21.32,21.32H368.73A21.32,21.32,0,0,0,390,391.58V213.27A21.31,21.31,0,0,0,368.73,192Zm-78.11,40.73a16.85,16.85,0,0,1,16.85-16.85H349a16.85,16.85,0,0,1,16.85,16.85v41.53A16.84,16.84,0,0,1,349,291.06H307.47a16.84,16.84,0,0,1-16.85-16.84ZM188.53,221.21a5.36,5.36,0,0,1,5.36-5.37h75.45a5.36,5.36,0,0,1,5.36,5.37v3.06a5.36,5.36,0,0,1-5.36,5.36H193.89a5.36,5.36,0,0,1-5.36-5.36Zm0,47.23a5.36,5.36,0,0,1,5.36-5.36h75.45a5.36,5.36,0,0,1,5.36,5.36v3.07a5.36,5.36,0,0,1-5.36,5.36H193.89a5.36,5.36,0,0,1-5.36-5.36ZM371.13,366a5.36,5.36,0,0,1-5.36,5.36H193.89a5.36,5.36,0,0,1-5.36-5.36v-3.06a5.36,5.36,0,0,1,5.36-5.36H365.77a5.36,5.36,0,0,1,5.36,5.36Zm.22-47.23a5.36,5.36,0,0,1-5.36,5.36H194.11a5.36,5.36,0,0,1-5.36-5.36v-3.07a5.36,5.36,0,0,1,5.36-5.36H366a5.36,5.36,0,0,1,5.36,5.36Z"/><path class="cls-1" d="M384.3,114.9H174.85a60,60,0,0,0-59.95,59.95V384.3a60,60,0,0,0,59.95,59.95H384.3a60,60,0,0,0,59.95-59.95V174.85A60,60,0,0,0,384.3,114.9ZM138.81,180.11V384.62a21.3,21.3,0,0,1-10.54-18.37V162.85a21.32,21.32,0,0,1,21.32-21.31H353a21.28,21.28,0,0,1,18.37,10.54h-206C150.71,152.08,138.81,164.63,138.81,180.11Zm263.78,224a21.32,21.32,0,0,1-21.32,21.31H177.87a21.32,21.32,0,0,1-21.31-21.31V200.73a21.32,21.32,0,0,1,21.31-21.32h203.4a21.33,21.33,0,0,1,21.32,21.32Z"/></g></g></svg>