<svg xmlns="http://www.w3.org/2000/svg" viewBox="0 0 559.15 559.15"><defs><style>.cls-1{fill:#231f20;}</style></defs><title>Asset 17</title><g id="Layer_2" data-name="Layer 2"><g id="Layer_1-2" data-name="Layer 1"><path class="cls-1" d="M279.57,0C125.17,0,0,125.17,0,279.57S125.17,559.15,279.57,559.15,559.15,434,559.15,279.57,434,0,279.57,0ZM467.25,416.13a51.12,51.12,0,0,1-51.12,51.12H143A51.12,51.12,0,0,1,91.9,416.13V143A51.12,51.12,0,0,1,143,91.9H416.13A51.12,51.12,0,0,1,467.25,143Z"/><path class="cls-1" d="M383.59,114.9h-208a60.66,60.66,0,0,0-60.66,60.66v208a60.66,60.66,0,0,0,60.66,60.66h208a60.66,60.66,0,0,0,60.66-60.66v-208A60.66,60.66,0,0,0,383.59,114.9ZM371.81,359h-20a122.08,122.08,0,1,1,0-158.52h20v37.66H344.87a17.64,17.64,0,0,1-2.19.13,18.9,18.9,0,0,1-13.53-5.68,84.56,84.56,0,1,0,0,94.29,18.94,18.94,0,0,1,13.53-5.68,19.81,19.81,0,0,1,2.19.13h26.94Zm50.46-75.82a14.59,14.59,0,0,1-1.53,6.49v0l-.06.1a16,16,0,0,1-1.19,1.94L391,338.29V297.81H238.83a14.63,14.63,0,0,1-14.62-14.63V276.3a14.63,14.63,0,0,1,14.62-14.63H391V221.19l28.5,46.55a15.87,15.87,0,0,1,1.19,1.93l.06.11v0a14.59,14.59,0,0,1,1.53,6.49Z"/></g></g></svg>