<svg xmlns="http://www.w3.org/2000/svg" viewBox="0 0 559.15 559.15"><defs><style>.cls-1{fill:#231f20;}</style></defs><title>Asset 16</title><g id="Layer_2" data-name="Layer 2"><g id="Layer_1-2" data-name="Layer 1"><path class="cls-1" d="M279.57,0C125.17,0,0,125.17,0,279.57S125.17,559.15,279.57,559.15,559.15,434,559.15,279.57,434,0,279.57,0ZM467.25,416.13a51.12,51.12,0,0,1-51.12,51.12H143A51.12,51.12,0,0,1,91.9,416.13V143A51.12,51.12,0,0,1,143,91.9H416.13A51.12,51.12,0,0,1,467.25,143Z"/><path class="cls-1" d="M384.3,114.9H174.85a60,60,0,0,0-59.95,59.95V384.3a60,60,0,0,0,59.95,59.95H384.3a60,60,0,0,0,59.95-59.95V174.85A60,60,0,0,0,384.3,114.9Zm32.25,181.4a18,18,0,0,1-18,18H313.79v84.25a18,18,0,0,1-18,18H263.36a18,18,0,0,1-18-18V314.3H160.6a18,18,0,0,1-18-18V262.85a18,18,0,0,1,18-18h84.76V160.6a18,18,0,0,1,18-18h32.43a18,18,0,0,1,18,18v84.25h84.76a18,18,0,0,1,18,18Z"/></g></g></svg>