<svg xmlns="http://www.w3.org/2000/svg" viewBox="0 0 559.15 559.15"><defs><style>.cls-1{fill:#231f20;}</style></defs><title>Asset 14</title><g id="Layer_2" data-name="Layer 2"><g id="Layer_1-2" data-name="Layer 1"><path class="cls-1" d="M277.14,282c-7.3,2-13,1.66-16.2-1.62s-3.37-9-1.1-16.25q-3.76,3.57-7.59,7.27c-43.82,42.42-75.45,80.83-70.65,85.78s44.21-25.41,88-67.83Q273.46,285.61,277.14,282Zm-17.4,11.6c-32.16,31.14-61.08,53.42-64.61,49.79s19.7-31.83,51.86-63q2.81-2.72,5.57-5.34c-1.67,5.31-1.52,9.52.81,11.93s6.53,2.68,11.89,1.19Q262.54,290.83,259.74,293.55Z"/><path class="cls-1" d="M207.59,301c8.79-7.17,5.82-25.37-6.64-40.67s-29.69-21.9-38.48-14.74-5.82,25.37,6.64,40.67S198.8,308.15,207.59,301Zm-36.23-16.58c-10.69-13.13-13.24-28.76-5.69-34.9s22.33-.49,33,12.64,13.24,28.76,5.69,34.91S182.06,297.54,171.36,284.41Z"/><path class="cls-1" d="M354.76,323.36c-17.43-9.25-35.87-8.63-41.19,1.39s4.51,25.64,21.94,34.89,35.86,8.62,41.18-1.4S372.19,332.6,354.76,323.36Zm17.46,32.51c-4.57,8.6-20.39,9.13-35.35,1.2S313.48,335.72,318,327.12s20.39-9.13,35.35-1.19S376.78,347.27,372.22,355.87Z"/><path class="cls-1" d="M245.4,234.11c8.78-7.18,5.76-25.38-6.73-40.65s-29.75-21.83-38.52-14.64-5.76,25.38,6.73,40.65S236.63,241.29,245.4,234.11Zm-42.05-51.37c7.54-6.17,22.34-.54,33.06,12.56s13.32,28.73,5.78,34.89-22.33.54-33.06-12.56S195.82,188.9,203.35,182.74Z"/><path class="cls-1" d="M289.65,353.2c-15.29-12.47-33.5-15.44-40.66-6.65s-.58,26,14.72,38.49,33.5,15.44,40.67,6.65S305,365.66,289.65,353.2Zm10.8,35.29c-6.15,7.54-21.77,5-34.9-5.71s-18.79-25.49-12.64-33,21.78-5,34.91,5.7S306.6,380.94,300.45,388.49Z"/><path class="cls-1" d="M383.59,114.9h-208a60.66,60.66,0,0,0-60.66,60.66v208a60.66,60.66,0,0,0,60.66,60.66h208a60.66,60.66,0,0,0,60.66-60.66v-208A60.66,60.66,0,0,0,383.59,114.9ZM264.29,426.47C156.21,380.84,84.15,279.53,161.12,201.09c0,0,99.9-98,127.74-13.07.05.16.11.32.16.48a59,59,0,0,0-20.2,66.77,47.64,47.64,0,0,0-2.59,6.39c-1,.92-1.62,10.08.84,12.63s6.92,2.84,12.59,1.26h0l1.09-.32a58.87,58.87,0,0,0,83.59,3.62,169.72,169.72,0,0,1,22.77,17C431.34,335.09,372.38,472.1,264.29,426.47Zm28.13-202.74c2,31.49,26.51,27.62,26.71,27.59-12.64,10.85-25.16,18.31-34.52,20.93h0c-6,1.68-10.71,1.36-13.32-1.33s-1.93-12.38-.89-13.36C273.3,248.28,281.17,236,292.42,223.73ZM423.15,203c-8.77,3.93-61.25,52.44-75.74,50.47l-14.49-2L322,247.34s-24.69,4-26.71-27.6,20.43-91.08,63.56-99.67c0,0,21.06,61.91,41.38,62.82S431.93,199.09,423.15,203Z"/><path class="cls-1" d="M397.91,206.74c-6.33,2.14-35.91,33.55-50.68,34.33l1.64.44c12.35,3.3,42.55-29,48.69-31.13,1.71-.57,1.92-2,1-3.92A2.63,2.63,0,0,1,397.91,206.74Z"/><path class="cls-1" d="M279.57,0C125.17,0,0,125.17,0,279.57S125.17,559.15,279.57,559.15,559.15,434,559.15,279.57,434,0,279.57,0ZM467.25,416.13a51.12,51.12,0,0,1-51.12,51.12H143A51.12,51.12,0,0,1,91.9,416.13V143A51.12,51.12,0,0,1,143,91.9H416.13A51.12,51.12,0,0,1,467.25,143Z"/></g></g></svg>