<svg xmlns="http://www.w3.org/2000/svg" viewBox="0 0 559.15 559.15"><defs><style>.cls-1{fill:#231f20;}</style></defs><title>Asset 13</title><g id="Layer_2" data-name="Layer 2"><g id="Layer_1-2" data-name="Layer 1"><circle class="cls-1" cx="352.6" cy="361.76" r="25.15" transform="translate(-98.74 588.66) rotate(-72.42)"/><path class="cls-1" d="M383.58,114.9h-208a60.66,60.66,0,0,0-60.66,60.66v208a60.66,60.66,0,0,0,60.66,60.66h208a60.66,60.66,0,0,0,60.67-60.66v-208A60.66,60.66,0,0,0,383.58,114.9Zm-119,14.35c38.06,0,68.92,36.24,68.92,80.95s-30.85,80.94-68.92,80.94S195.7,254.91,195.7,210.2,226.56,129.25,264.62,129.25Zm-83.11,300A22.54,22.54,0,0,1,159,406.8v-59a65.81,65.81,0,0,1,55.74-65.05c12.56,15.46,30.27,25.1,49.89,25.1s37.34-9.64,49.89-25.1a65.45,65.45,0,0,1,30.86,13.5h-6.49v19.49a48.06,48.06,0,0,0-15.82,6.56l-13.79-13.79L294.84,323l13.79,13.79a47.89,47.89,0,0,0-6.56,15.82H282.58V373h19.49a47.89,47.89,0,0,0,6.56,15.82l-13.79,13.79L309.28,417l13.78-13.78a47.8,47.8,0,0,0,15.83,6.55v19.5Zm213.14-35.37-11.3,11.3-10.79-10.79a37.77,37.77,0,0,1-12.24,5.1h0q-1,.23-2,.39v12.9H346.1v-12.9c-.68-.11-1.34-.23-2-.38h0a37.47,37.47,0,0,1-12.28-5.11h0q-.81-.53-1.59-1.08l-9.13,9.13-8.63-8.64,9.12-9.12c-.38-.52-.73-1.05-1.08-1.59h0a37.38,37.38,0,0,1-5.14-12.39h0c-.13-.62-.25-1.25-.36-1.88H302.1V356.64H315c.1-.63.22-1.26.35-1.88h0a37.31,37.31,0,0,1,5.06-12.25h0c.36-.58.74-1.14,1.14-1.69l-9.13-9.13,8.64-8.64,9.12,9.12c.56-.4,1.12-.78,1.69-1.14h0A37.36,37.36,0,0,1,344,326h0c.67-.15,1.33-.27,2-.38V312.69h12.21v12.9c.68.11,1.35.23,2,.38h0a37.55,37.55,0,0,1,12.29,5.12l10.79-10.8,11.3,11.3-10.79,10.79A37.57,37.57,0,0,1,389,354.76h15.26v16H389a37.43,37.43,0,0,1-5.13,12.38Z"/><path class="cls-1" d="M279.57,0C125.17,0,0,125.17,0,279.57S125.17,559.15,279.57,559.15,559.15,434,559.15,279.57,434,0,279.57,0ZM467.25,416.13a51.12,51.12,0,0,1-51.12,51.12H143A51.12,51.12,0,0,1,91.9,416.13V143A51.12,51.12,0,0,1,143,91.9H416.13A51.12,51.12,0,0,1,467.25,143Z"/></g></g></svg>